<?xml version="1.0" standalone="no"?>
<!DOCTYPE svg PUBLIC "-//W3C//DTD SVG 20010904//EN"
 "http://www.w3.org/TR/2001/REC-SVG-20010904/DTD/svg10.dtd">
<svg version="1.0" xmlns="http://www.w3.org/2000/svg"
 width="512.000000pt" height="512.000000pt" viewBox="0 0 512.000000 512.000000"
 preserveAspectRatio="xMidYMid meet">
<metadata>
Created by potrace 1.11, written by Peter Selinger 2001-2013
</metadata>
<g transform="translate(0.000000,512.000000) scale(0.100000,-0.100000)"
fill="#000000" stroke="none">
<path d="M414 4928 c3 -13 94 -993 202 -2178 133 -1450 201 -2158 209 -2165 7
-5 400 -120 874 -254 l861 -244 866 246 c476 135 869 248 872 252 4 3 95 965
203 2138 108 1173 199 2153 202 2180 l4 47 -2149 0 -2148 0 4 -22z m3496 -886
c0 -9 -13 -161 -30 -337 -16 -176 -30 -328 -30 -337 0 -17 -20 -18 -285 -18
l-285 0 0 80 0 80 -740 0 -740 0 5 -37 c3 -21 39 -416 81 -878 42 -462 79
-843 82 -847 4 -4 138 -44 298 -91 l291 -84 295 85 295 84 17 207 c10 113 23
268 30 344 l12 137 -328 0 -328 0 0 178 c0 99 3 220 6 270 l7 92 623 0 c515 0
624 -2 624 -13 0 -28 -149 -1630 -152 -1632 -2 -2 -249 -73 -550 -158 l-546
-155 -549 155 c-301 86 -549 156 -550 157 -2 1 -253 2713 -253 2729 0 4 608 7
1350 7 1281 0 1350 -1 1350 -18z"/>
</g>
</svg>
